HIERARCHY
ROOT hip
{
  OFFSET 0 0 0
  CHANNELS 6 Xposition Yposition Zposition Zrotation Yrotation Xrotation
  JOINT abdomen
  {
    OFFSET 0 20.6881 -0.73152
    CHANNELS 3 Zrotation Xrotation Yrotation
    JOINT chest
    {
      OFFSET 0 11.7043 -0.48768
      CHANNELS 3 Zrotation Xrotation Yrotation
      JOINT neck
      {
        OFFSET 0 22.1894 -2.19456
        CHANNELS 3 Zrotation Xrotation Yrotation
        JOINT head
        {
          OFFSET -0.24384 7.07133 1.2192
          CHANNELS 3 Zrotation Xrotation Yrotation
          JOINT leftEye
          {
            OFFSET 4.14528 8.04674 8.04672
            CHANNELS 3 Zrotation Xrotation Yrotation
            End Site
            {
              OFFSET 1 0 0
            }
          }
          JOINT rightEye
          {
            OFFSET -3.6576 8.04674 8.04672
            CHANNELS 3 Zrotation Xrotation Yrotation
            End Site
            {
              OFFSET 1 0 0
            }
          }
        }
      }
      JOINT rCollar
      {
        OFFSET -2.68224 19.2634 -4.8768
        CHANNELS 3 Zrotation Xrotation Yrotation
        JOINT rShldr
        {
          OFFSET -8.77824 -1.95073 1.46304
          CHANNELS 3 Zrotation Xrotation Yrotation
          JOINT rForeArm
          {
            OFFSET -28.1742 -1.7115 0.48768
            CHANNELS 3 Zrotation Xrotation Yrotation
            JOINT rHand
            {
              OFFSET -22.5879 0.773209 7.07136
              CHANNELS 3 Zrotation Xrotation Yrotation
              JOINT rThumb1
              {
                OFFSET -1.2192 -0.487915 3.41376
                CHANNELS 3 Zrotation Xrotation Yrotation
                JOINT rThumb2
                {
                  OFFSET -3.37035 -0.52449 3.41376
                  CHANNELS 3 Zrotation Xrotation Yrotation
                  End Site
                  {
                    OFFSET -1.78271 -1.18214 1.43049
                  }
                }
              }
              JOINT rIndex1
              {
                OFFSET -7.75947 0.938293 5.60832
                CHANNELS 3 Zrotation Xrotation Yrotation
                JOINT rIndex2
                {
                  OFFSET -2.54057 -0.884171 1.56538
                  CHANNELS 3 Zrotation Xrotation Yrotation
                  End Site
                  {
                    OFFSET -1.62519 -0.234802 1.16502
                  }
                }
              }
              JOINT rMid1
              {
                OFFSET -8.24714 1.18213 3.41376
                CHANNELS 3 Zrotation Xrotation Yrotation
                JOINT rMid2
                {
                  OFFSET -3.10165 -0.590103 1.0647
                  CHANNELS 3 Zrotation Xrotation Yrotation
                  End Site
                  {
                    OFFSET -2.48547 -0.328903 0.83742
                  }
                }
              }
              JOINT rRing1
              {
                OFFSET -8.82822 0.546677 1.51678
                CHANNELS 3 Zrotation Xrotation Yrotation
                JOINT rRing2
                {
                  OFFSET -2.60934 -0.819778 -0.0198488
                  CHANNELS 3 Zrotation Xrotation Yrotation
                  End Site
                  {
                    OFFSET -2.33842 -0.294052 0.168128
                  }
                }
              }
              JOINT rPinky1
              {
                OFFSET -8.27202 -0.0477905 -0.4584
                CHANNELS 3 Zrotation Xrotation Yrotation
                JOINT rPinky2
                {
                  OFFSET -1.82734 -0.647385 -0.700984
                  CHANNELS 3 Zrotation Xrotation Yrotation
                  End Site
                  {
                    OFFSET -1.69225 -0.51767 -0.607171
                  }
                }
              }
            }
          }
        }
      }
      JOINT lCollar
      {
        OFFSET 2.68224 19.2634 -4.8768
        CHANNELS 3 Zrotation Xrotation Yrotation
        JOINT lShldr
        {
          OFFSET 8.77824 -1.95073 1.46304
          CHANNELS 3 Zrotation Xrotation Yrotation
          JOINT lForeArm
          {
            OFFSET 28.1742 -1.7115 0.48768
            CHANNELS 3 Zrotation Xrotation Yrotation
            JOINT lHand
            {
              OFFSET 22.5879 0.773209 7.07136
              CHANNELS 3 Zrotation Xrotation Yrotation
              JOINT lThumb1
              {
                OFFSET 1.2192 -0.487915 3.41376
                CHANNELS 3 Zrotation Xrotation Yrotation
                JOINT lThumb2
                {
                  OFFSET 3.37035 -0.52449 3.41376
                  CHANNELS 3 Zrotation Xrotation Yrotation
                  End Site
                  {
                    OFFSET 1.78271 -1.18214 1.43049
                  }
                }
              }
              JOINT lIndex1
              {
                OFFSET 7.75947 0.938293 5.60832
                CHANNELS 3 Zrotation Xrotation Yrotation
                JOINT lIndex2
                {
                  OFFSET 2.54057 -0.884171 1.56538
                  CHANNELS 3 Zrotation Xrotation Yrotation
                  End Site
                  {
                    OFFSET 1.62519 -0.234802 1.16502
                  }
                }
              }
              JOINT lMid1
              {
                OFFSET 8.24714 1.18213 3.41376
                CHANNELS 3 Zrotation Xrotation Yrotation
                JOINT lMid2
                {
                  OFFSET 3.10165 -0.590103 1.0647
                  CHANNELS 3 Zrotation Xrotation Yrotation
                  End Site
                  {
                    OFFSET 2.48547 -0.328903 0.83742
                  }
                }
              }
              JOINT lRing1
              {
                OFFSET 8.82822 0.546677 1.51678
                CHANNELS 3 Zrotation Xrotation Yrotation
                JOINT lRing2
                {
                  OFFSET 2.60934 -0.819778 -0.0198488
                  CHANNELS 3 Zrotation Xrotation Yrotation
                  End Site
                  {
                    OFFSET 2.33842 -0.294052 0.168128
                  }
                }
              }
              JOINT lPinky1
              {
                OFFSET 8.27202 -0.0477905 -0.4584
                CHANNELS 3 Zrotation Xrotation Yrotation
                JOINT lPinky2
                {
                  OFFSET 1.82734 -0.647385 -0.700984
                  CHANNELS 3 Zrotation Xrotation Yrotation
                  End Site
                  {
                    OFFSET 1.69225 -0.51767 -0.607171
                  }
                }
              }
            }
          }
        }
      }
    }
  }
  JOINT rButtock
  {
    OFFSET -8.77824 4.35084 1.2192
    CHANNELS 3 Zrotation Xrotation Yrotation
    JOINT rThigh
    {
      OFFSET 0 -1.70687 -2.19456
      CHANNELS 3 Zrotation Xrotation Yrotation
      JOINT rShin
      {
        OFFSET 0 -36.8199 0.73152
        CHANNELS 3 Zrotation Xrotation Yrotation
        JOINT rFoot
        {
          OFFSET 0.73152 -45.1104 -5.12064
          CHANNELS 3 Zrotation Xrotation Yrotation
          End Site
          {
            OFFSET -1.1221 -3.69964 12.103
          }
        }
      }
    }
  }
  JOINT lButtock
  {
    OFFSET 8.77824 4.35084 1.2192
    CHANNELS 3 Zrotation Xrotation Yrotation
    JOINT lThigh
    {
      OFFSET 0 -1.70687 -2.19456
      CHANNELS 3 Zrotation Xrotation Yrotation
      JOINT lShin
      {
        OFFSET 0 -36.8199 0.73152
        CHANNELS 3 Zrotation Xrotation Yrotation
        JOINT lFoot
        {
          OFFSET -0.73152 -45.1104 -5.12064
          CHANNELS 3 Zrotation Xrotation Yrotation
          End Site
          {
            OFFSET 1.1221 -3.69964 12.103
          }
        }
      }
    }
  }
}
MOTION
Frames:	4
Frame Time:	0.00833333
-29.866 81.3716 51.5235 -175.69 79.6561 -167.362 -6.79696 -6.81116 -0.74205 -0.0159026 8.5577 -0.167563 -5.67344 15.166 -2.21609 14.5867 -35.0392 0.346081 -0.0 0.0 0.0 -0.0 0.0 0.0 -6.92175e-14 9.06687e-13 2.50298e-13 82.0544 17.5228 2.47883 -15.9686 -8.65713 29.6083 -0.822337 24.8451 3.73115 -3.48623e-10 9.0827e-10 -1.82459e-09 -6.36766e-10 1.55616e-09 -3.14688e-09 -3.48622e-10 9.08278e-10 -1.82459e-09 7.73091 5.47488 0.417314 -3.48626e-10 9.08278e-10 -1.82459e-09 2.90554 0.965183 0.102902 -3.48615e-10 9.08277e-10 -1.82459e-09 10.2786 0.731801 0.0259123 -3.48624e-10 9.08273e-10 -1.82458e-09 2.22167 -0.733487 -0.20892 -6.92145e-14 9.06683e-13 2.50071e-13 -81.0728 -3.60622 2.09286 7.42568 -2.71693 -13.0557 2.68351 41.3302 -7.10147 -3.87275e-09 1.24527e-09 2.10671e-09 -6.6062e-09 2.16264e-09 3.75235e-09 -3.87275e-09 1.24527e-09 2.10671e-09 -7.73091 5.47488 -0.417314 -3.87275e-09 1.24527e-09 2.1067e-09 -2.90554 0.965183 -0.102902 -3.87275e-09 1.24527e-09 2.1067e-09 -10.2786 0.731801 -0.0259123 -3.87274e-09 1.24528e-09 2.10669e-09 -2.22167 -0.733487 0.20892 -2.03217e-16 0.0 -3.88251e-19 1.80495 -7.10952 -0.656182 -0.295663 18.4215 -0.606251 8.17784 -17.4258 20.146 2.03217e-16 0.0 3.88251e-19 -1.92748 -41.0614 -5.90324 0.0169438 25.8611 0.361546 1.72848 7.47232 -11.5883
-28.5832 81.2778 50.9969 -176.278 79.8856 -167.976 -7.00454 -7.06016 -0.675441 0.0433153 8.65034 -0.162643 -5.70228 15.0157 -2.2284 14.6575 -34.8456 0.333904 -0.0 0.0 0.0 -0.0 0.0 0.0 -6.38446e-14 4.03979e-13 1.58068e-13 82.2355 17.5873 2.06343 -15.9161 -8.60694 29.5014 -0.817806 24.7775 3.71974 -4.75126e-11 4.51806e-10 -7.17178e-10 -9.52605e-11 7.75808e-10 -1.23964e-09 -4.75131e-11 4.51811e-10 -7.17177e-10 7.73091 5.47488 0.417314 -4.75142e-11 4.51812e-10 -7.17177e-10 2.90554 0.965183 0.102902 -4.75055e-11 4.51811e-10 -7.17181e-10 10.2786 0.731801 0.0259123 -4.75135e-11 4.51808e-10 -7.17171e-10 2.22167 -0.733487 -0.20892 -6.37763e-14 4.03981e-13 1.57804e-13 -80.9785 -5.02242 2.40456 7.27605 -2.64261 -12.7841 2.8775 42.468 -7.39228 -1.80524e-09 6.97618e-10 1.33841e-09 -3.0685e-09 1.20629e-09 2.36178e-09 -1.80525e-09 6.9762e-10 1.33841e-09 -7.73091 5.47488 -0.417314 -1.80525e-09 6.97619e-10 1.3384e-09 -2.90554 0.965183 -0.102902 -1.80525e-09 6.97619e-10 1.3384e-09 -10.2786 0.731801 -0.0259123 -1.80524e-09 6.97621e-10 1.3384e-09 -2.22167 -0.733487 0.20892 -2.03217e-16 0.0 -3.88251e-19 1.78942 -5.97097 0.491349 -0.290357 18.3895 -0.57156 7.70658 -18.03 18.6831 2.03217e-16 0.0 3.88251e-19 -2.17287 -40.5375 -5.43335 0.0186347 26.5446 0.359738 1.73761 7.73919 -11.4947
-27.2891 81.2487 50.4688 -176.931 80.0139 -168.71 -7.29422 -7.2982 -0.642385 0.118028 8.74337 -0.168376 -5.71524 14.8775 -2.25787 14.7515 -34.6409 0.291984 -0.0 0.0 0.0 -0.0 0.0 0.0 -5.63827e-14 -1.49343e-13 5.48502e-14 82.4638 17.5052 1.59767 -15.8213 -8.51938 29.3023 -0.818855 24.7915 3.72215 2.56461e-10 -3.21597e-11 4.33958e-10 4.51929e-10 -5.16872e-11 7.43139e-10 2.5646e-10 -3.21567e-11 4.33957e-10 7.73091 5.47488 0.417314 2.5646e-10 -3.21567e-11 4.3396e-10 2.90554 0.965183 0.102902 2.56467e-10 -3.21577e-11 4.33952e-10 10.2786 0.731801 0.0259123 2.56459e-10 -3.21593e-11 4.33961e-10 2.22167 -0.733487 -0.20892 -5.62539e-14 -1.49336e-13 5.45571e-14 -80.8625 -6.35284 2.65724 7.14383 -2.57812 -12.5439 3.06629 43.5225 -7.67068 3.74424e-10 1.16369e-10 4.98355e-10 6.59754e-10 1.92707e-10 8.43664e-10 3.74419e-10 1.16368e-10 4.98361e-10 -7.73091 5.47488 -0.417314 3.74423e-10 1.16366e-10 4.98354e-10 -2.90554 0.965183 -0.102902 3.74419e-10 1.16365e-10 4.9835e-10 -10.2786 0.731801 -0.0259123 3.74435e-10 1.16368e-10 4.9835e-10 -2.22167 -0.733487 0.20892 -2.03217e-16 0.0 -3.88251e-19 1.69221 -5.06397 1.51787 -0.28429 18.7646 -0.524502 7.14534 -18.4646 17.1773 2.03217e-16 0.0 3.88251e-19 -2.51192 -39.9724 -5.12487 0.0225352 27.4435 0.35215 1.68179 7.80285 -11.2694
-25.9983 81.2493 49.9131 -178.791 80.0231 -170.744 -7.72728 -7.48336 -0.620804 0.216962 8.82087 -0.176266 -5.72763 14.8144 -2.29803 14.9204 -34.4903 0.25305 -0.0 0.0 0.0 -0.0 0.0 0.0 -4.77901e-14 -6.11664e-13 -3.4837e-14 82.7519 17.1533 1.12421 -15.6641 -8.37878 28.9666 -0.831486 24.9747 3.75324 4.80024e-10 -3.62523e-10 1.19129e-09 8.52391e-10 -6.16551e-10 2.04705e-09 4.80024e-10 -3.62521e-10 1.19129e-09 7.73091 5.47488 0.417314 4.80024e-10 -3.62522e-10 1.19129e-09 2.90554 0.965183 0.102902 4.80029e-10 -3.62523e-10 1.19128e-09 10.2786 0.731801 0.0259123 4.80022e-10 -3.62523e-10 1.19129e-09 2.22167 -0.733487 -0.20892 -4.76297e-14 -6.11655e-13 -3.51352e-14 -80.729 -7.62424 2.8068 7.01603 -2.51609 -12.3125 3.26239 44.5529 -7.9532 1.86779e-09 -2.83502e-10 -1.10524e-10 3.21241e-09 -5.01669e-10 -2.54295e-10 1.86778e-09 -2.83505e-10 -1.10515e-10 -7.73091 5.47488 -0.417314 1.86778e-09 -2.83507e-10 -1.10524e-10 -2.90554 0.965183 -0.102902 1.86778e-09 -2.83508e-10 -1.10527e-10 -10.2786 0.731801 -0.0259123 1.8678e-09 -2.83505e-10 -1.10527e-10 -2.22167 -0.733487 0.20892 -2.03217e-16 0.0 -3.88251e-19 1.45455 -4.6201 2.188 -0.280773 19.8401 -0.473364 6.58803 -18.4166 15.971 2.03217e-16 0.0 3.88251e-19 -2.87332 -39.4071 -4.76379 0.029608 28.2299 0.349026 1.63277 7.68033 -11.3596
